<?xml version="1.0" encoding="UTF-8" standalone="no"?><svg xmlns="http://www.w3.org/2000/svg" xmlns:xlink="http://www.w3.org/1999/xlink" contentScriptType="application/ecmascript" contentStyleType="text/css" height="944px" preserveAspectRatio="none" style="width:445px;height:944px;" version="1.1" viewBox="0 0 445 944" width="445px" zoomAndPan="magnify"><defs><filter height="300%" id="f1a5dz5rd320h" width="300%" x="-1" y="-1"><feGaussianBlur result="blurOut" stdDeviation="2.0"/><feColorMatrix in="blurOut" result="blurOut2" type="matrix" values="0 0 0 0 0 0 0 0 0 0 0 0 0 0 0 0 0 0 .4 0"/><feOffset dx="4.0" dy="4.0" in="blurOut2" result="blurOut3"/><feBlend in="SourceGraphic" in2="blurOut3" mode="normal"/></filter></defs><g><rect fill="none" height="30.2719" style="stroke: none; stroke-width: 1.0;" width="75" x="158.5" y="15"/><text fill="#000000" font-family="sans-serif" font-size="14" font-weight="bold" lengthAdjust="spacingAndGlyphs" textLength="65" x="163.5" y="36.2399">C语言入门</text><rect fill="#FEFECE" filter="url(#f1a5dz5rd320h)" height="40.2719" rx="12.5" ry="12.5" style="stroke: #A80036; stroke-width: 1.5;" width="57" x="10" y="477.2629"/><text fill="#000000" font-family="sans-serif" font-size="14" lengthAdjust="spacingAndGlyphs" textLength="37" x="20" y="503.5029">C语言</text><rect fill="#FEFECE" filter="url(#f1a5dz5rd320h)" height="40.2719" rx="12.5" ry="12.5" style="stroke: #A80036; stroke-width: 1.5;" width="104" x="117" y="135.9517"/><text fill="#000000" font-family="sans-serif" font-size="14" lengthAdjust="spacingAndGlyphs" textLength="84" x="127" y="162.1916">基本数据类型</text><rect fill="#FEFECE" filter="url(#f1a5dz5rd320h)" height="40.2719" rx="12.5" ry="12.5" style="stroke: #A80036; stroke-width: 1.5;" width="48" x="271" y="75.6798"/><text fill="#000000" font-family="sans-serif" font-size="14" lengthAdjust="spacingAndGlyphs" textLength="28" x="281" y="101.9197">整数</text><text fill="#000000" font-family="sans-serif" font-size="14" lengthAdjust="spacingAndGlyphs" textLength="29" x="372" y="68.5118">char</text><path d="M319,95.8157 L329,95.8157 C344,95.8157 344,62.4079 359,62.4079 L369,62.4079 " fill="none" style="stroke: #A80036; stroke-width: 1.0;"/><text fill="#000000" font-family="sans-serif" font-size="14" lengthAdjust="spacingAndGlyphs" textLength="34" x="372" y="90.7838">short</text><path d="M319,95.8157 L329,95.8157 C344,95.8157 344,84.6798 359,84.6798 L369,84.6798 " fill="none" style="stroke: #A80036; stroke-width: 1.0;"/><text fill="#000000" font-family="sans-serif" font-size="14" lengthAdjust="spacingAndGlyphs" textLength="18" x="372" y="113.0557">int</text><path d="M319,95.8157 L329,95.8157 C344,95.8157 344,106.9517 359,106.9517 L369,106.9517 " fill="none" style="stroke: #A80036; stroke-width: 1.0;"/><text fill="#000000" font-family="sans-serif" font-size="14" lengthAdjust="spacingAndGlyphs" textLength="29" x="372" y="135.3276">long</text><path d="M319,95.8157 L329,95.8157 C344,95.8157 344,129.2236 359,129.2236 L369,129.2236 " fill="none" style="stroke: #A80036; stroke-width: 1.0;"/><path d="M221,156.0876 L231,156.0876 C246,156.0876 246,95.8157 261,95.8157 L271,95.8157 " fill="none" style="stroke: #A80036; stroke-width: 1.0;"/><rect fill="#FEFECE" filter="url(#f1a5dz5rd320h)" height="40.2719" rx="12.5" ry="12.5" style="stroke: #A80036; stroke-width: 1.5;" width="62" x="271" y="150.3596"/><text fill="#000000" font-family="sans-serif" font-size="14" lengthAdjust="spacingAndGlyphs" textLength="42" x="281" y="176.5995">浮点数</text><text fill="#000000" font-family="sans-serif" font-size="14" lengthAdjust="spacingAndGlyphs" textLength="30" x="386" y="165.4635">float</text><path d="M333,170.4955 L343,170.4955 C358,170.4955 358,159.3596 373,159.3596 L383,159.3596 " fill="none" style="stroke: #A80036; stroke-width: 1.0;"/><text fill="#000000" font-family="sans-serif" font-size="14" lengthAdjust="spacingAndGlyphs" textLength="47" x="386" y="187.7354">double</text><path d="M333,170.4955 L343,170.4955 C358,170.4955 358,181.6315 373,181.6315 L383,181.6315 " fill="none" style="stroke: #A80036; stroke-width: 1.0;"/><path d="M221,156.0876 L231,156.0876 C246,156.0876 246,170.4955 261,170.4955 L271,170.4955 " fill="none" style="stroke: #A80036; stroke-width: 1.0;"/><rect fill="#FEFECE" filter="url(#f1a5dz5rd320h)" height="40.2719" rx="12.5" ry="12.5" style="stroke: #A80036; stroke-width: 1.5;" width="76" x="271" y="210.6315"/><text fill="#000000" font-family="sans-serif" font-size="14" lengthAdjust="spacingAndGlyphs" textLength="56" x="281" y="236.8714">类型转换</text><path d="M221,156.0876 L231,156.0876 C246,156.0876 246,230.7674 261,230.7674 L271,230.7674 " fill="none" style="stroke: #A80036; stroke-width: 1.0;"/><path d="M67,497.3989 L77,497.3989 C92,497.3989 92,156.0876 107,156.0876 L117,156.0876 " fill="none" style="stroke: #A80036; stroke-width: 1.0;"/><rect fill="#FEFECE" filter="url(#f1a5dz5rd320h)" height="40.2719" rx="12.5" ry="12.5" style="stroke: #A80036; stroke-width: 1.5;" width="76" x="117" y="361.3112"/><text fill="#000000" font-family="sans-serif" font-size="14" lengthAdjust="spacingAndGlyphs" textLength="56" x="127" y="387.5512">程序结构</text><rect fill="#FEFECE" filter="url(#f1a5dz5rd320h)" height="40.2719" rx="12.5" ry="12.5" style="stroke: #A80036; stroke-width: 1.5;" width="48" x="243" y="270.9034"/><text fill="#000000" font-family="sans-serif" font-size="14" lengthAdjust="spacingAndGlyphs" textLength="28" x="253" y="297.1433">顺序</text><path d="M193,381.4472 L203,381.4472 C218,381.4472 218,291.0393 233,291.0393 L243,291.0393 " fill="none" style="stroke: #A80036; stroke-width: 1.0;"/><rect fill="#FEFECE" filter="url(#f1a5dz5rd320h)" height="40.2719" rx="12.5" ry="12.5" style="stroke: #A80036; stroke-width: 1.5;" width="48" x="243" y="331.1753"/><text fill="#000000" font-family="sans-serif" font-size="14" lengthAdjust="spacingAndGlyphs" textLength="28" x="253" y="357.4152">分支</text><text fill="#000000" font-family="sans-serif" font-size="14" lengthAdjust="spacingAndGlyphs" textLength="44" x="344" y="346.2793">if..else</text><path d="M291,351.3112 L301,351.3112 C316,351.3112 316,340.1753 331,340.1753 L341,340.1753 " fill="none" style="stroke: #A80036; stroke-width: 1.0;"/><text fill="#000000" font-family="sans-serif" font-size="14" lengthAdjust="spacingAndGlyphs" textLength="81" x="344" y="368.5512">switch..case</text><path d="M291,351.3112 L301,351.3112 C316,351.3112 316,362.4472 331,362.4472 L341,362.4472 " fill="none" style="stroke: #A80036; stroke-width: 1.0;"/><path d="M193,381.4472 L203,381.4472 C218,381.4472 218,351.3112 233,351.3112 L243,351.3112 " fill="none" style="stroke: #A80036; stroke-width: 1.0;"/><rect fill="#FEFECE" filter="url(#f1a5dz5rd320h)" height="40.2719" rx="12.5" ry="12.5" style="stroke: #A80036; stroke-width: 1.5;" width="48" x="243" y="391.4472"/><text fill="#000000" font-family="sans-serif" font-size="14" lengthAdjust="spacingAndGlyphs" textLength="28" x="253" y="417.6871">循环</text><text fill="#000000" font-family="sans-serif" font-size="14" lengthAdjust="spacingAndGlyphs" textLength="18" x="344" y="395.4152">for</text><path d="M291,411.5832 L301,411.5832 C316,411.5832 316,389.3112 331,389.3112 L341,389.3112 " fill="none" style="stroke: #A80036; stroke-width: 1.0;"/><text fill="#000000" font-family="sans-serif" font-size="14" lengthAdjust="spacingAndGlyphs" textLength="36" x="344" y="417.6871">while</text><path d="M291,411.5832 L301,411.5832 C316,411.5832 316,411.5832 331,411.5832 L341,411.5832 " fill="none" style="stroke: #A80036; stroke-width: 1.0;"/><text fill="#000000" font-family="sans-serif" font-size="14" lengthAdjust="spacingAndGlyphs" textLength="61" x="344" y="439.959">do..while</text><path d="M291,411.5832 L301,411.5832 C316,411.5832 316,433.8551 331,433.8551 L341,433.8551 " fill="none" style="stroke: #A80036; stroke-width: 1.0;"/><path d="M193,381.4472 L203,381.4472 C218,381.4472 218,411.5832 233,411.5832 L243,411.5832 " fill="none" style="stroke: #A80036; stroke-width: 1.0;"/><rect fill="#FEFECE" filter="url(#f1a5dz5rd320h)" height="40.2719" rx="12.5" ry="12.5" style="stroke: #A80036; stroke-width: 1.5;" width="48" x="243" y="451.7191"/><text fill="#000000" font-family="sans-serif" font-size="14" lengthAdjust="spacingAndGlyphs" textLength="28" x="253" y="477.959">函数</text><text fill="#000000" font-family="sans-serif" font-size="14" lengthAdjust="spacingAndGlyphs" textLength="56" x="344" y="466.8231">参数传递</text><path d="M291,471.8551 L301,471.8551 C316,471.8551 316,460.7191 331,460.7191 L341,460.7191 " fill="none" style="stroke: #A80036; stroke-width: 1.0;"/><text fill="#000000" font-family="sans-serif" font-size="14" lengthAdjust="spacingAndGlyphs" textLength="42" x="344" y="489.095">返回值</text><path d="M291,471.8551 L301,471.8551 C316,471.8551 316,482.991 331,482.991 L341,482.991 " fill="none" style="stroke: #A80036; stroke-width: 1.0;"/><path d="M193,381.4472 L203,381.4472 C218,381.4472 218,471.8551 233,471.8551 L243,471.8551 " fill="none" style="stroke: #A80036; stroke-width: 1.0;"/><path d="M67,497.3989 L77,497.3989 C92,497.3989 92,381.4472 107,381.4472 L117,381.4472 " fill="none" style="stroke: #A80036; stroke-width: 1.0;"/><rect fill="#FEFECE" filter="url(#f1a5dz5rd320h)" height="40.2719" rx="12.5" ry="12.5" style="stroke: #A80036; stroke-width: 1.5;" width="62" x="117" y="582.0787"/><text fill="#000000" font-family="sans-serif" font-size="14" lengthAdjust="spacingAndGlyphs" textLength="42" x="127" y="608.3186">表达式</text><text fill="#000000" font-family="sans-serif" font-size="14" lengthAdjust="spacingAndGlyphs" textLength="56" x="232" y="519.231">算数运算</text><path d="M179,602.2146 L189,602.2146 C204,602.2146 204,513.127 219,513.127 L229,513.127 " fill="none" style="stroke: #A80036; stroke-width: 1.0;"/><text fill="#000000" font-family="sans-serif" font-size="14" lengthAdjust="spacingAndGlyphs" textLength="70" x="232" y="541.5029">关系表达式</text><path d="M179,602.2146 L189,602.2146 C204,602.2146 204,535.3989 219,535.3989 L229,535.3989 " fill="none" style="stroke: #A80036; stroke-width: 1.0;"/><text fill="#000000" font-family="sans-serif" font-size="14" lengthAdjust="spacingAndGlyphs" textLength="56" x="232" y="563.7748">逻辑运算</text><path d="M179,602.2146 L189,602.2146 C204,602.2146 204,557.6708 219,557.6708 L229,557.6708 " fill="none" style="stroke: #A80036; stroke-width: 1.0;"/><text fill="#000000" font-family="sans-serif" font-size="14" lengthAdjust="spacingAndGlyphs" textLength="56" x="232" y="586.0467">自增自减</text><path d="M179,602.2146 L189,602.2146 C204,602.2146 204,579.9427 219,579.9427 L229,579.9427 " fill="none" style="stroke: #A80036; stroke-width: 1.0;"/><text fill="#000000" font-family="sans-serif" font-size="14" lengthAdjust="spacingAndGlyphs" textLength="70" x="232" y="608.3186">赋值表达式</text><path d="M179,602.2146 L189,602.2146 C204,602.2146 204,602.2146 219,602.2146 L229,602.2146 " fill="none" style="stroke: #A80036; stroke-width: 1.0;"/><text fill="#000000" font-family="sans-serif" font-size="14" lengthAdjust="spacingAndGlyphs" textLength="70" x="232" y="630.5905">条件表达式</text><path d="M179,602.2146 L189,602.2146 C204,602.2146 204,624.4865 219,624.4865 L229,624.4865 " fill="none" style="stroke: #A80036; stroke-width: 1.0;"/><text fill="#000000" font-family="sans-serif" font-size="14" lengthAdjust="spacingAndGlyphs" textLength="46" x="232" y="652.8624">bit运算</text><path d="M179,602.2146 L189,602.2146 C204,602.2146 204,646.7585 219,646.7585 L229,646.7585 " fill="none" style="stroke: #A80036; stroke-width: 1.0;"/><text fill="#000000" font-family="sans-serif" font-size="14" lengthAdjust="spacingAndGlyphs" textLength="70" x="232" y="675.1343">复合位赋值</text><path d="M179,602.2146 L189,602.2146 C204,602.2146 204,669.0304 219,669.0304 L229,669.0304 " fill="none" style="stroke: #A80036; stroke-width: 1.0;"/><text fill="#000000" font-family="sans-serif" font-size="14" lengthAdjust="spacingAndGlyphs" textLength="39" x="232" y="697.4063">sizeof</text><path d="M179,602.2146 L189,602.2146 C204,602.2146 204,691.3023 219,691.3023 L229,691.3023 " fill="none" style="stroke: #A80036; stroke-width: 1.0;"/><path d="M67,497.3989 L77,497.3989 C92,497.3989 92,602.2146 107,602.2146 L117,602.2146 " fill="none" style="stroke: #A80036; stroke-width: 1.0;"/><rect fill="#FEFECE" filter="url(#f1a5dz5rd320h)" height="40.2719" rx="12.5" ry="12.5" style="stroke: #A80036; stroke-width: 1.5;" width="104" x="117" y="802.8461"/><text fill="#000000" font-family="sans-serif" font-size="14" lengthAdjust="spacingAndGlyphs" textLength="84" x="127" y="829.086">高级数据结构</text><rect fill="#FEFECE" filter="url(#f1a5dz5rd320h)" height="40.2719" rx="12.5" ry="12.5" style="stroke: #A80036; stroke-width: 1.5;" width="62" x="271" y="712.4382"/><text fill="#000000" font-family="sans-serif" font-size="14" lengthAdjust="spacingAndGlyphs" textLength="42" x="281" y="738.6782">结构体</text><path d="M221,822.9821 L231,822.9821 C246,822.9821 246,732.5742 261,732.5742 L271,732.5742 " fill="none" style="stroke: #A80036; stroke-width: 1.0;"/><rect fill="#FEFECE" filter="url(#f1a5dz5rd320h)" height="40.2719" rx="12.5" ry="12.5" style="stroke: #A80036; stroke-width: 1.5;" width="90" x="271" y="772.7101"/><text fill="#000000" font-family="sans-serif" font-size="14" lengthAdjust="spacingAndGlyphs" textLength="70" x="281" y="798.9501">结构体数组</text><path d="M221,822.9821 L231,822.9821 C246,822.9821 246,792.8461 261,792.8461 L271,792.8461 " fill="none" style="stroke: #A80036; stroke-width: 1.0;"/><rect fill="#FEFECE" filter="url(#f1a5dz5rd320h)" height="40.2719" rx="12.5" ry="12.5" style="stroke: #A80036; stroke-width: 1.5;" width="48" x="271" y="832.9821"/><text fill="#000000" font-family="sans-serif" font-size="14" lengthAdjust="spacingAndGlyphs" textLength="28" x="281" y="859.222">指针</text><path d="M221,822.9821 L231,822.9821 C246,822.9821 246,853.118 261,853.118 L271,853.118 " fill="none" style="stroke: #A80036; stroke-width: 1.0;"/><rect fill="#FEFECE" filter="url(#f1a5dz5rd320h)" height="40.2719" rx="12.5" ry="12.5" style="stroke: #A80036; stroke-width: 1.5;" width="76" x="271" y="893.254"/><text fill="#000000" font-family="sans-serif" font-size="14" lengthAdjust="spacingAndGlyphs" textLength="56" x="281" y="919.4939">指针链表</text><path d="M221,822.9821 L231,822.9821 C246,822.9821 246,913.3899 261,913.3899 L271,913.3899 " fill="none" style="stroke: #A80036; stroke-width: 1.0;"/><path d="M67,497.3989 L77,497.3989 C92,497.3989 92,822.9821 107,822.9821 L117,822.9821 " fill="none" style="stroke: #A80036; stroke-width: 1.0;"/><!--MD5=[7ec9d57b3d4a469855d7ec2deb187264]
@startmindmap
title C语言入门
* C语言
** 基本数据类型
*** 整数
****_ char
****_ short
****_ int
****_ long
*** 浮点数
****_ float
****_ double
*** 类型转换
** 程序结构
*** 顺序
*** 分支
****_ if..else
****_ switch..case
*** 循环
****_ for
****_ while
****_ do..while
*** 函数
****_ 参数传递
****_ 返回值
** 表达式
***_ 算数运算
***_ 关系表达式
***_ 逻辑运算
***_ 自增自减
***_ 赋值表达式
***_ 条件表达式
***_ bit运算
***_ 复合位赋值
***_ sizeof
** 高级数据结构
*** 结构体
*** 结构体数组
*** 指针
*** 指针链表
@endmindmap

PlantUML version 1.2020.06(Sun Apr 05 20:38:32 CST 2020)
(GPL source distribution)
Java Runtime: OpenJDK Runtime Environment
JVM: OpenJDK 64-Bit Server VM
Java Version: 11.0.7+10-post-Ubuntu-2ubuntu219.10
Operating System: Linux
Default Encoding: UTF-8
Language: en
Country: US
--></g></svg>